<?xml version="1.0" encoding="utf-8"?>
<!-- Generator: Adobe Illustrator 23.0.2, SVG Export Plug-In . SVG Version: 6.00 Build 0)  -->
<svg version="1.1" id="Layer_1" xmlns="http://www.w3.org/2000/svg" xmlns:xlink="http://www.w3.org/1999/xlink" x="0px" y="0px"
	 viewBox="0 0 1040.86 1095.62" style="enable-background:new 0 0 1040.86 1095.62;" xml:space="preserve">
<style type="text/css">
	.st0{fill:#24272A;}
	.st1{fill:#FFFFFF;}
	.st2{fill:#C04D00;}
</style>
<g id="XMLID_2_">
	<g>
		<polygon class="st0" points="186.6,289.45 464.47,129.42 428.38,191.7 433.72,200.97 427.19,225.27 288.22,305.3 263.91,298.77 
			258.57,289.5 		"/>
		<polygon class="st0" points="160.78,369.55 186.53,325.06 237.96,325.1 263.6,369.61 386.91,440.92 438.33,440.94 463.98,485.47 
			438.19,529.97 386.76,529.94 361.12,485.4 237.82,414.11 186.41,414.07 		"/>
		<polygon class="st0" points="469.55,191.72 495.29,147.24 546.74,147.26 572.38,191.78 546.58,236.29 546.36,378.72 
			572.01,423.25 546.27,467.73 494.84,467.7 469.19,423.16 494.99,378.68 495.19,236.23 		"/>
		<polygon class="st0" points="129.87,387.35 165.75,449.67 176.48,449.7 194.25,467.49 194.01,627.71 176.17,645.54 165.46,645.49 
			129.42,707.81 		"/>
		<polygon class="st0" points="577.59,129.5 855.05,289.9 783.04,289.82 777.71,299.1 753.33,305.58 614.61,225.4 608.16,201.08 
			613.48,191.82 		"/>
		<polygon class="st0" points="654.16,530.11 602.72,530.05 577.08,485.53 602.86,441.03 654.25,441.09 777.76,369.96 
			803.56,325.44 854.95,325.5 880.58,370.02 854.86,414.52 803.39,414.47 679.88,485.61 		"/>
		<polygon class="st0" points="438,654.59 386.56,654.54 263.05,725.67 237.28,770.19 185.86,770.13 160.22,725.61 185.98,681.12 
			237.41,681.16 360.92,610.02 386.7,565.52 438.11,565.57 463.75,610.08 		"/>
		<polygon class="st0" points="287.49,790.03 426.2,870.23 432.69,894.58 427.32,903.85 463.21,966.16 185.81,805.73 257.77,805.78 
			263.14,796.56 		"/>
		<polygon class="st0" points="602.53,654.69 576.9,610.18 602.67,565.65 654.07,565.73 679.7,610.25 803,681.54 854.45,681.56 
			880.09,726.08 854.28,770.59 802.9,770.53 777.26,726.02 653.97,654.73 		"/>
		<polygon class="st0" points="571.31,903.91 545.53,948.41 494.12,948.36 468.48,903.85 494.24,859.36 494.46,716.94 
			468.82,672.42 494.59,627.9 546.03,627.95 571.67,672.47 545.89,716.97 545.67,859.39 		"/>
		<polygon class="st0" points="846.55,628.14 846.82,467.91 864.69,450.12 875.35,450.1 911.44,387.82 910.93,708.31 875.04,645.99 
			864.37,645.96 		"/>
		<polygon class="st0" points="576.35,966.2 612.43,903.93 607.1,894.68 613.65,870.37 752.62,790.34 776.91,796.88 782.24,806.13 
			854.22,806.17 		"/>
	</g>
</g>
</svg>
